<mxfile host="app.diagrams.net" modified="2024-07-17T17:39:58.201Z" agent="Mozilla/5.0 (Windows NT 10.0; Win64; x64) AppleWebKit/537.36 (KHTML, like Gecko) Chrome/126.0.0.0 Safari/537.36" etag="EecVc3vMYWhLzL4geGFe" version="24.7.1" type="device">
  <diagram name="Page-1" id="riIzEda42bknY9Tccz27">
    <mxGraphModel dx="1311" dy="666" grid="1" gridSize="10" guides="1" tooltips="1" connect="1" arrows="1" fold="1" page="1" pageScale="1" pageWidth="850" pageHeight="1100" math="0" shadow="0">
      <root>
        <mxCell id="0" />
        <mxCell id="1" parent="0" />
        <mxCell id="wcx3AJRljDLgZKPLAiGM-8" style="edgeStyle=orthogonalEdgeStyle;rounded=0;orthogonalLoop=1;jettySize=auto;html=1;exitX=0.5;exitY=1;exitDx=0;exitDy=0;" parent="1" source="l_pT_V-jfQc_cWCq-nv2-1" target="l_pT_V-jfQc_cWCq-nv2-36" edge="1">
          <mxGeometry relative="1" as="geometry" />
        </mxCell>
        <mxCell id="l_pT_V-jfQc_cWCq-nv2-1" value="Start" style="ellipse;whiteSpace=wrap;html=1;" parent="1" vertex="1">
          <mxGeometry x="390" y="20" width="120" height="80" as="geometry" />
        </mxCell>
        <mxCell id="l_pT_V-jfQc_cWCq-nv2-2" value="Admin" style="rounded=0;whiteSpace=wrap;html=1;" parent="1" vertex="1">
          <mxGeometry x="120" y="140" width="175" height="60" as="geometry" />
        </mxCell>
        <mxCell id="wcx3AJRljDLgZKPLAiGM-4" style="edgeStyle=orthogonalEdgeStyle;rounded=0;orthogonalLoop=1;jettySize=auto;html=1;exitX=0;exitY=0.5;exitDx=0;exitDy=0;" parent="1" source="l_pT_V-jfQc_cWCq-nv2-3" edge="1">
          <mxGeometry relative="1" as="geometry">
            <mxPoint x="200" y="230" as="targetPoint" />
            <Array as="points">
              <mxPoint x="110" y="310" />
              <mxPoint x="110" y="230" />
            </Array>
          </mxGeometry>
        </mxCell>
        <mxCell id="l_pT_V-jfQc_cWCq-nv2-3" value="Login" style="rhombus;whiteSpace=wrap;html=1;" parent="1" vertex="1">
          <mxGeometry x="160" y="270" width="80" height="80" as="geometry" />
        </mxCell>
        <mxCell id="l_pT_V-jfQc_cWCq-nv2-26" style="edgeStyle=orthogonalEdgeStyle;rounded=0;orthogonalLoop=1;jettySize=auto;html=1;exitX=0.5;exitY=1;exitDx=0;exitDy=0;entryX=0.5;entryY=0;entryDx=0;entryDy=0;" parent="1" source="l_pT_V-jfQc_cWCq-nv2-4" target="l_pT_V-jfQc_cWCq-nv2-5" edge="1">
          <mxGeometry relative="1" as="geometry" />
        </mxCell>
        <mxCell id="l_pT_V-jfQc_cWCq-nv2-4" value="Dashboard" style="rounded=0;whiteSpace=wrap;html=1;" parent="1" vertex="1">
          <mxGeometry x="120" y="370" width="175" height="60" as="geometry" />
        </mxCell>
        <mxCell id="l_pT_V-jfQc_cWCq-nv2-27" style="edgeStyle=orthogonalEdgeStyle;rounded=0;orthogonalLoop=1;jettySize=auto;html=1;exitX=0.5;exitY=1;exitDx=0;exitDy=0;entryX=0.5;entryY=0;entryDx=0;entryDy=0;" parent="1" source="l_pT_V-jfQc_cWCq-nv2-5" target="l_pT_V-jfQc_cWCq-nv2-6" edge="1">
          <mxGeometry relative="1" as="geometry" />
        </mxCell>
        <mxCell id="l_pT_V-jfQc_cWCq-nv2-5" value="Insert Past Details" style="rounded=0;whiteSpace=wrap;html=1;" parent="1" vertex="1">
          <mxGeometry x="120" y="470" width="175" height="60" as="geometry" />
        </mxCell>
        <mxCell id="l_pT_V-jfQc_cWCq-nv2-6" value="Sucess" style="rhombus;whiteSpace=wrap;html=1;" parent="1" vertex="1">
          <mxGeometry x="170" y="560" width="80" height="80" as="geometry" />
        </mxCell>
        <mxCell id="l_pT_V-jfQc_cWCq-nv2-31" style="edgeStyle=orthogonalEdgeStyle;rounded=0;orthogonalLoop=1;jettySize=auto;html=1;exitX=0.5;exitY=1;exitDx=0;exitDy=0;entryX=0.5;entryY=0;entryDx=0;entryDy=0;" parent="1" source="l_pT_V-jfQc_cWCq-nv2-7" target="l_pT_V-jfQc_cWCq-nv2-8" edge="1">
          <mxGeometry relative="1" as="geometry" />
        </mxCell>
        <mxCell id="l_pT_V-jfQc_cWCq-nv2-7" value="Management projects and own accounts" style="rounded=0;whiteSpace=wrap;html=1;" parent="1" vertex="1">
          <mxGeometry x="120" y="670" width="175" height="60" as="geometry" />
        </mxCell>
        <mxCell id="l_pT_V-jfQc_cWCq-nv2-33" style="edgeStyle=orthogonalEdgeStyle;rounded=0;orthogonalLoop=1;jettySize=auto;html=1;entryX=0.5;entryY=0;entryDx=0;entryDy=0;" parent="1" source="l_pT_V-jfQc_cWCq-nv2-8" target="l_pT_V-jfQc_cWCq-nv2-9" edge="1">
          <mxGeometry relative="1" as="geometry" />
        </mxCell>
        <mxCell id="l_pT_V-jfQc_cWCq-nv2-8" value="Confirm Projects" style="rounded=0;whiteSpace=wrap;html=1;" parent="1" vertex="1">
          <mxGeometry x="120" y="770" width="175" height="60" as="geometry" />
        </mxCell>
        <mxCell id="wcx3AJRljDLgZKPLAiGM-5" style="edgeStyle=orthogonalEdgeStyle;rounded=0;orthogonalLoop=1;jettySize=auto;html=1;exitX=0.5;exitY=1;exitDx=0;exitDy=0;entryX=0;entryY=0.5;entryDx=0;entryDy=0;" parent="1" source="l_pT_V-jfQc_cWCq-nv2-9" target="l_pT_V-jfQc_cWCq-nv2-10" edge="1">
          <mxGeometry relative="1" as="geometry" />
        </mxCell>
        <mxCell id="l_pT_V-jfQc_cWCq-nv2-9" value="Log Out" style="rounded=0;whiteSpace=wrap;html=1;" parent="1" vertex="1">
          <mxGeometry x="120" y="870" width="175" height="60" as="geometry" />
        </mxCell>
        <mxCell id="l_pT_V-jfQc_cWCq-nv2-10" value="Stop" style="ellipse;whiteSpace=wrap;html=1;" parent="1" vertex="1">
          <mxGeometry x="365" y="960" width="120" height="80" as="geometry" />
        </mxCell>
        <mxCell id="l_pT_V-jfQc_cWCq-nv2-13" value="No" style="text;html=1;align=center;verticalAlign=middle;resizable=0;points=[];autosize=1;strokeColor=none;fillColor=none;" parent="1" vertex="1">
          <mxGeometry x="100" y="560" width="40" height="30" as="geometry" />
        </mxCell>
        <mxCell id="l_pT_V-jfQc_cWCq-nv2-15" value="" style="endArrow=classic;html=1;rounded=0;exitX=0.5;exitY=1;exitDx=0;exitDy=0;entryX=0.46;entryY=-0.015;entryDx=0;entryDy=0;entryPerimeter=0;" parent="1" source="l_pT_V-jfQc_cWCq-nv2-3" target="l_pT_V-jfQc_cWCq-nv2-4" edge="1">
          <mxGeometry width="50" height="50" relative="1" as="geometry">
            <mxPoint x="520" y="540" as="sourcePoint" />
            <mxPoint x="200" y="360" as="targetPoint" />
          </mxGeometry>
        </mxCell>
        <mxCell id="l_pT_V-jfQc_cWCq-nv2-21" value="yes" style="text;html=1;align=center;verticalAlign=middle;resizable=0;points=[];autosize=1;strokeColor=none;fillColor=none;" parent="1" vertex="1">
          <mxGeometry x="210" y="338" width="40" height="30" as="geometry" />
        </mxCell>
        <mxCell id="l_pT_V-jfQc_cWCq-nv2-23" value="" style="endArrow=classic;html=1;rounded=0;exitX=0.46;exitY=1.002;exitDx=0;exitDy=0;exitPerimeter=0;entryX=0.5;entryY=0;entryDx=0;entryDy=0;" parent="1" source="l_pT_V-jfQc_cWCq-nv2-2" target="l_pT_V-jfQc_cWCq-nv2-3" edge="1">
          <mxGeometry width="50" height="50" relative="1" as="geometry">
            <mxPoint x="350" y="240" as="sourcePoint" />
            <mxPoint x="400" y="190" as="targetPoint" />
          </mxGeometry>
        </mxCell>
        <mxCell id="l_pT_V-jfQc_cWCq-nv2-25" value="No" style="text;html=1;align=center;verticalAlign=middle;resizable=0;points=[];autosize=1;strokeColor=none;fillColor=none;" parent="1" vertex="1">
          <mxGeometry x="120" y="275" width="40" height="30" as="geometry" />
        </mxCell>
        <mxCell id="l_pT_V-jfQc_cWCq-nv2-30" style="edgeStyle=orthogonalEdgeStyle;rounded=0;orthogonalLoop=1;jettySize=auto;html=1;exitX=0.5;exitY=1;exitDx=0;exitDy=0;entryX=0.515;entryY=0.004;entryDx=0;entryDy=0;entryPerimeter=0;" parent="1" source="l_pT_V-jfQc_cWCq-nv2-6" target="l_pT_V-jfQc_cWCq-nv2-7" edge="1">
          <mxGeometry relative="1" as="geometry" />
        </mxCell>
        <mxCell id="l_pT_V-jfQc_cWCq-nv2-32" value="Yes" style="text;html=1;align=center;verticalAlign=middle;resizable=0;points=[];autosize=1;strokeColor=none;fillColor=none;" parent="1" vertex="1">
          <mxGeometry x="210" y="640" width="40" height="30" as="geometry" />
        </mxCell>
        <mxCell id="l_pT_V-jfQc_cWCq-nv2-47" style="edgeStyle=orthogonalEdgeStyle;rounded=0;orthogonalLoop=1;jettySize=auto;html=1;exitX=0.5;exitY=1;exitDx=0;exitDy=0;" parent="1" source="l_pT_V-jfQc_cWCq-nv2-36" target="l_pT_V-jfQc_cWCq-nv2-37" edge="1">
          <mxGeometry relative="1" as="geometry" />
        </mxCell>
        <mxCell id="l_pT_V-jfQc_cWCq-nv2-36" value="User&amp;nbsp;" style="rounded=0;whiteSpace=wrap;html=1;" parent="1" vertex="1">
          <mxGeometry x="600" y="140" width="175" height="60" as="geometry" />
        </mxCell>
        <mxCell id="l_pT_V-jfQc_cWCq-nv2-48" style="edgeStyle=orthogonalEdgeStyle;rounded=0;orthogonalLoop=1;jettySize=auto;html=1;exitX=0.5;exitY=1;exitDx=0;exitDy=0;entryX=0.5;entryY=0;entryDx=0;entryDy=0;" parent="1" source="l_pT_V-jfQc_cWCq-nv2-37" target="l_pT_V-jfQc_cWCq-nv2-39" edge="1">
          <mxGeometry relative="1" as="geometry" />
        </mxCell>
        <mxCell id="l_pT_V-jfQc_cWCq-nv2-37" value="Login" style="rhombus;whiteSpace=wrap;html=1;" parent="1" vertex="1">
          <mxGeometry x="647.5" y="250" width="80" height="80" as="geometry" />
        </mxCell>
        <mxCell id="l_pT_V-jfQc_cWCq-nv2-49" style="edgeStyle=orthogonalEdgeStyle;rounded=0;orthogonalLoop=1;jettySize=auto;html=1;exitX=0.5;exitY=1;exitDx=0;exitDy=0;entryX=0.5;entryY=0;entryDx=0;entryDy=0;" parent="1" source="l_pT_V-jfQc_cWCq-nv2-39" target="l_pT_V-jfQc_cWCq-nv2-40" edge="1">
          <mxGeometry relative="1" as="geometry" />
        </mxCell>
        <mxCell id="l_pT_V-jfQc_cWCq-nv2-39" value="Dashboard" style="rounded=0;whiteSpace=wrap;html=1;" parent="1" vertex="1">
          <mxGeometry x="600" y="370" width="175" height="60" as="geometry" />
        </mxCell>
        <mxCell id="l_pT_V-jfQc_cWCq-nv2-50" style="edgeStyle=orthogonalEdgeStyle;rounded=0;orthogonalLoop=1;jettySize=auto;html=1;exitX=0.5;exitY=1;exitDx=0;exitDy=0;entryX=0.5;entryY=0;entryDx=0;entryDy=0;" parent="1" source="l_pT_V-jfQc_cWCq-nv2-40" target="l_pT_V-jfQc_cWCq-nv2-41" edge="1">
          <mxGeometry relative="1" as="geometry" />
        </mxCell>
        <mxCell id="l_pT_V-jfQc_cWCq-nv2-40" value="View Admin Past details" style="rounded=0;whiteSpace=wrap;html=1;" parent="1" vertex="1">
          <mxGeometry x="600" y="460" width="175" height="60" as="geometry" />
        </mxCell>
        <mxCell id="l_pT_V-jfQc_cWCq-nv2-41" value="Sucess" style="rhombus;whiteSpace=wrap;html=1;" parent="1" vertex="1">
          <mxGeometry x="650" y="550" width="80" height="80" as="geometry" />
        </mxCell>
        <mxCell id="wcx3AJRljDLgZKPLAiGM-6" style="edgeStyle=orthogonalEdgeStyle;rounded=0;orthogonalLoop=1;jettySize=auto;html=1;exitX=0.5;exitY=1;exitDx=0;exitDy=0;entryX=1;entryY=0.5;entryDx=0;entryDy=0;" parent="1" source="l_pT_V-jfQc_cWCq-nv2-42" target="l_pT_V-jfQc_cWCq-nv2-10" edge="1">
          <mxGeometry relative="1" as="geometry" />
        </mxCell>
        <mxCell id="l_pT_V-jfQc_cWCq-nv2-42" value="logout" style="rounded=0;whiteSpace=wrap;html=1;" parent="1" vertex="1">
          <mxGeometry x="600" y="860" width="175" height="60" as="geometry" />
        </mxCell>
        <mxCell id="l_pT_V-jfQc_cWCq-nv2-43" value="Track project" style="rounded=0;whiteSpace=wrap;html=1;" parent="1" vertex="1">
          <mxGeometry x="602.5" y="770" width="175" height="60" as="geometry" />
        </mxCell>
        <mxCell id="l_pT_V-jfQc_cWCq-nv2-44" value="Book Admin For the Project" style="rounded=0;whiteSpace=wrap;html=1;" parent="1" vertex="1">
          <mxGeometry x="600" y="670" width="175" height="60" as="geometry" />
        </mxCell>
        <mxCell id="l_pT_V-jfQc_cWCq-nv2-52" style="edgeStyle=orthogonalEdgeStyle;rounded=0;orthogonalLoop=1;jettySize=auto;html=1;exitX=0.5;exitY=1;exitDx=0;exitDy=0;entryX=0.526;entryY=0.029;entryDx=0;entryDy=0;entryPerimeter=0;" parent="1" source="l_pT_V-jfQc_cWCq-nv2-43" target="l_pT_V-jfQc_cWCq-nv2-42" edge="1">
          <mxGeometry relative="1" as="geometry" />
        </mxCell>
        <mxCell id="l_pT_V-jfQc_cWCq-nv2-54" value="" style="endArrow=classic;html=1;rounded=0;exitX=0.5;exitY=1;exitDx=0;exitDy=0;entryX=0.489;entryY=0.028;entryDx=0;entryDy=0;entryPerimeter=0;" parent="1" source="l_pT_V-jfQc_cWCq-nv2-44" target="l_pT_V-jfQc_cWCq-nv2-43" edge="1">
          <mxGeometry width="50" height="50" relative="1" as="geometry">
            <mxPoint x="570" y="750" as="sourcePoint" />
            <mxPoint x="620" y="700" as="targetPoint" />
          </mxGeometry>
        </mxCell>
        <mxCell id="l_pT_V-jfQc_cWCq-nv2-55" value="" style="endArrow=classic;html=1;rounded=0;entryX=0.516;entryY=-0.011;entryDx=0;entryDy=0;entryPerimeter=0;exitX=0.5;exitY=1;exitDx=0;exitDy=0;" parent="1" source="l_pT_V-jfQc_cWCq-nv2-41" target="l_pT_V-jfQc_cWCq-nv2-44" edge="1">
          <mxGeometry width="50" height="50" relative="1" as="geometry">
            <mxPoint x="570" y="650" as="sourcePoint" />
            <mxPoint x="620" y="600" as="targetPoint" />
          </mxGeometry>
        </mxCell>
        <mxCell id="l_pT_V-jfQc_cWCq-nv2-57" value="" style="endArrow=classic;html=1;rounded=0;exitX=1;exitY=0.5;exitDx=0;exitDy=0;" parent="1" source="l_pT_V-jfQc_cWCq-nv2-37" edge="1">
          <mxGeometry width="50" height="50" relative="1" as="geometry">
            <mxPoint x="390" y="290" as="sourcePoint" />
            <mxPoint x="688" y="220" as="targetPoint" />
            <Array as="points">
              <mxPoint x="800" y="290" />
              <mxPoint x="800" y="220" />
            </Array>
          </mxGeometry>
        </mxCell>
        <mxCell id="l_pT_V-jfQc_cWCq-nv2-58" value="yes" style="text;html=1;align=center;verticalAlign=middle;resizable=0;points=[];autosize=1;strokeColor=none;fillColor=none;" parent="1" vertex="1">
          <mxGeometry x="700" y="328" width="40" height="30" as="geometry" />
        </mxCell>
        <mxCell id="l_pT_V-jfQc_cWCq-nv2-59" value="No" style="text;html=1;align=center;verticalAlign=middle;resizable=0;points=[];autosize=1;strokeColor=none;fillColor=none;" parent="1" vertex="1">
          <mxGeometry x="720" y="258" width="40" height="30" as="geometry" />
        </mxCell>
        <mxCell id="l_pT_V-jfQc_cWCq-nv2-60" value="Yes" style="text;html=1;align=center;verticalAlign=middle;resizable=0;points=[];autosize=1;strokeColor=none;fillColor=none;" parent="1" vertex="1">
          <mxGeometry x="687.5" y="630" width="40" height="30" as="geometry" />
        </mxCell>
        <mxCell id="l_pT_V-jfQc_cWCq-nv2-61" value="No" style="text;html=1;align=center;verticalAlign=middle;resizable=0;points=[];autosize=1;strokeColor=none;fillColor=none;" parent="1" vertex="1">
          <mxGeometry x="735" y="567" width="40" height="30" as="geometry" />
        </mxCell>
        <mxCell id="wcx3AJRljDLgZKPLAiGM-7" style="edgeStyle=orthogonalEdgeStyle;rounded=0;orthogonalLoop=1;jettySize=auto;html=1;exitX=0.5;exitY=1;exitDx=0;exitDy=0;entryX=0.455;entryY=-0.076;entryDx=0;entryDy=0;entryPerimeter=0;" parent="1" source="l_pT_V-jfQc_cWCq-nv2-1" target="l_pT_V-jfQc_cWCq-nv2-2" edge="1">
          <mxGeometry relative="1" as="geometry" />
        </mxCell>
        <mxCell id="5jBhw9exanllBWWyPVi9-1" value="" style="endArrow=classic;html=1;rounded=0;exitX=0;exitY=0.5;exitDx=0;exitDy=0;entryX=-0.003;entryY=0.413;entryDx=0;entryDy=0;entryPerimeter=0;" edge="1" parent="1" source="l_pT_V-jfQc_cWCq-nv2-6" target="l_pT_V-jfQc_cWCq-nv2-5">
          <mxGeometry width="50" height="50" relative="1" as="geometry">
            <mxPoint x="400" y="420" as="sourcePoint" />
            <mxPoint x="450" y="370" as="targetPoint" />
            <Array as="points">
              <mxPoint x="80" y="600" />
              <mxPoint x="80" y="494" />
            </Array>
          </mxGeometry>
        </mxCell>
        <mxCell id="5jBhw9exanllBWWyPVi9-3" value="" style="endArrow=classic;html=1;rounded=0;exitX=1;exitY=0.5;exitDx=0;exitDy=0;entryX=1;entryY=0.5;entryDx=0;entryDy=0;" edge="1" parent="1" source="l_pT_V-jfQc_cWCq-nv2-41" target="l_pT_V-jfQc_cWCq-nv2-40">
          <mxGeometry width="50" height="50" relative="1" as="geometry">
            <mxPoint x="430" y="610" as="sourcePoint" />
            <mxPoint x="480" y="560" as="targetPoint" />
            <Array as="points">
              <mxPoint x="800" y="590" />
              <mxPoint x="800" y="490" />
            </Array>
          </mxGeometry>
        </mxCell>
      </root>
    </mxGraphModel>
  </diagram>
</mxfile>
